<?xml version="1.0" encoding="UTF-8"?><svg xmlns="http://www.w3.org/2000/svg" xmlns:xlink="http://www.w3.org/1999/xlink" height="6.1" preserveAspectRatio="xMidYMid meet" version="1.0" viewBox="0.0 0.1 500.0 6.1" width="500.0" zoomAndPan="magnify"><defs><clipPath id="a"><path d="M 8.601562 0.0507812 L 491.398438 0.0507812 L 491.398438 0.148438 L 8.601562 0.148438 Z M 8.300781 0.148438 L 491.699219 0.148438 L 491.699219 0.25 L 8.300781 0.25 Z M 7.898438 0.25 L 492.101562 0.25 L 492.101562 0.351562 L 7.898438 0.351562 Z M 7.601562 0.351562 L 492.398438 0.351562 L 492.398438 0.449219 L 7.601562 0.449219 Z M 7.199219 0.449219 L 492.800781 0.449219 L 492.800781 0.550781 L 7.199219 0.550781 Z M 6.898438 0.550781 L 493.101562 0.550781 L 493.101562 0.648438 L 6.898438 0.648438 Z M 6.5 0.648438 L 493.5 0.648438 L 493.5 0.75 L 6.5 0.75 Z M 6.101562 0.75 L 493.898438 0.75 L 493.898438 0.851562 L 6.101562 0.851562 Z M 5.800781 0.851562 L 494.199219 0.851562 L 494.199219 0.949219 L 5.800781 0.949219 Z M 5.398438 0.949219 L 494.601562 0.949219 L 494.601562 1.050781 L 5.398438 1.050781 Z M 5.101562 1.050781 L 494.898438 1.050781 L 494.898438 1.148438 L 5.101562 1.148438 Z M 4.699219 1.148438 L 495.300781 1.148438 L 495.300781 1.25 L 4.699219 1.25 Z M 4.398438 1.25 L 495.601562 1.25 L 495.601562 1.351562 L 4.398438 1.351562 Z M 4 1.351562 L 496 1.351562 L 496 1.449219 L 4 1.449219 Z M 3.699219 1.449219 L 496.300781 1.449219 L 496.300781 1.550781 L 3.699219 1.550781 Z M 3.300781 1.550781 L 496.699219 1.550781 L 496.699219 1.648438 L 3.300781 1.648438 Z M 3 1.648438 L 497 1.648438 L 497 1.75 L 3 1.75 Z M 2.601562 1.75 L 497.398438 1.75 L 497.398438 1.851562 L 2.601562 1.851562 Z M 2.300781 1.851562 L 497.699219 1.851562 L 497.699219 1.949219 L 2.300781 1.949219 Z M 1.898438 1.949219 L 498.101562 1.949219 L 498.101562 2.050781 L 1.898438 2.050781 Z M 1.5 2.050781 L 498.5 2.050781 L 498.5 2.148438 L 1.5 2.148438 Z M 1.199219 2.148438 L 498.800781 2.148438 L 498.800781 2.25 L 1.199219 2.25 Z M 0.800781 2.25 L 499.199219 2.25 L 499.199219 2.351562 L 0.800781 2.351562 Z M 0.5 2.351562 L 499.5 2.351562 L 499.5 2.449219 L 0.5 2.449219 Z M 0.199219 2.449219 L 499.800781 2.449219 L 499.800781 2.550781 L 0.199219 2.550781 Z M 0.101562 2.550781 L 499.898438 2.550781 L 499.898438 2.648438 L 0.101562 2.648438 Z M 0 2.648438 L 500 2.648438 L 500 3.449219 L 0 3.449219 Z M 0.101562 3.449219 L 499.898438 3.449219 L 499.898438 3.550781 L 0.101562 3.550781 Z M 0.199219 3.550781 L 499.800781 3.550781 L 499.800781 3.648438 L 0.199219 3.648438 Z M 0.300781 3.648438 L 499.699219 3.648438 L 499.699219 3.75 L 0.300781 3.75 Z M 0.601562 3.75 L 499.398438 3.75 L 499.398438 3.851562 L 0.601562 3.851562 Z M 1 3.851562 L 499 3.851562 L 499 3.949219 L 1 3.949219 Z M 1.398438 3.949219 L 498.601562 3.949219 L 498.601562 4.050781 L 1.398438 4.050781 Z M 1.699219 4.050781 L 498.300781 4.050781 L 498.300781 4.148438 L 1.699219 4.148438 Z M 2.101562 4.148438 L 497.898438 4.148438 L 497.898438 4.25 L 2.101562 4.25 Z M 2.398438 4.25 L 497.601562 4.25 L 497.601562 4.351562 L 2.398438 4.351562 Z M 2.800781 4.351562 L 497.199219 4.351562 L 497.199219 4.449219 L 2.800781 4.449219 Z M 3.101562 4.449219 L 496.898438 4.449219 L 496.898438 4.550781 L 3.101562 4.550781 Z M 3.5 4.550781 L 496.5 4.550781 L 496.5 4.648438 L 3.5 4.648438 Z M 3.800781 4.648438 L 496.199219 4.648438 L 496.199219 4.75 L 3.800781 4.75 Z M 4.199219 4.75 L 495.800781 4.75 L 495.800781 4.851562 L 4.199219 4.851562 Z M 4.5 4.851562 L 495.5 4.851562 L 495.5 4.949219 L 4.5 4.949219 Z M 4.898438 4.949219 L 495.101562 4.949219 L 495.101562 5.050781 L 4.898438 5.050781 Z M 5.300781 5.050781 L 494.699219 5.050781 L 494.699219 5.148438 L 5.300781 5.148438 Z M 5.601562 5.148438 L 494.398438 5.148438 L 494.398438 5.25 L 5.601562 5.25 Z M 6 5.25 L 494 5.25 L 494 5.351562 L 6 5.351562 Z M 6.300781 5.351562 L 493.699219 5.351562 L 493.699219 5.449219 L 6.300781 5.449219 Z M 6.699219 5.449219 L 493.300781 5.449219 L 493.300781 5.550781 L 6.699219 5.550781 Z M 7 5.550781 L 493 5.550781 L 493 5.648438 L 7 5.648438 Z M 7.398438 5.648438 L 492.601562 5.648438 L 492.601562 5.75 L 7.398438 5.75 Z M 7.699219 5.75 L 492.300781 5.75 L 492.300781 5.851562 L 7.699219 5.851562 Z M 8.101562 5.851562 L 491.898438 5.851562 L 491.898438 5.949219 L 8.101562 5.949219 Z M 8.398438 5.949219 L 491.601562 5.949219 L 491.601562 6.050781 L 8.398438 6.050781 Z M 8.800781 6.050781 L 491.199219 6.050781 L 491.199219 6.148438 L 8.800781 6.148438 Z M 8.800781 6.050781"/></clipPath><clipPath id="b"><path d="M 490.710938 0.00390625 L 9.289062 0.00390625 C 9.230469 0.00390625 9.171875 0.0117188 9.117188 0.0273438 L 0.460938 2.46875 C -0.152344 2.640625 -0.152344 3.511719 0.460938 3.683594 L 9.117188 6.125 C 9.171875 6.140625 9.230469 6.148438 9.289062 6.148438 L 490.710938 6.148438 C 490.769531 6.148438 490.828125 6.140625 490.882812 6.125 L 499.539062 3.683594 C 500.152344 3.511719 500.152344 2.640625 499.539062 2.46875 L 490.882812 0.0273438 C 490.828125 0.0117188 490.769531 0.00390625 490.710938 0.00390625 Z M 490.710938 0.00390625"/></clipPath><linearGradient gradientTransform="matrix(500 0 0 500 0 3.076)" gradientUnits="userSpaceOnUse" id="c" x1="0" x2="1" xlink:actuate="onLoad" xlink:show="other" xlink:type="simple" xmlns:xlink="http://www.w3.org/1999/xlink" y1="0" y2="0"><stop offset="0" stop-color="#cda55a"/><stop offset=".008" stop-color="#cda55a"/><stop offset=".016" stop-color="#cca459"/><stop offset=".023" stop-color="#cca459"/><stop offset=".031" stop-color="#cba358"/><stop offset=".039" stop-color="#cba358"/><stop offset=".047" stop-color="#caa257"/><stop offset=".055" stop-color="#c9a156"/><stop offset=".063" stop-color="#c9a156"/><stop offset=".07" stop-color="#c8a055"/><stop offset=".078" stop-color="#c8a055"/><stop offset=".086" stop-color="#c79f54"/><stop offset=".094" stop-color="#c79f54"/><stop offset=".102" stop-color="#c69e53"/><stop offset=".109" stop-color="#c69e53"/><stop offset=".117" stop-color="#c59d52"/><stop offset=".125" stop-color="#c49d52"/><stop offset=".133" stop-color="#c49c51"/><stop offset=".141" stop-color="#c39c50"/><stop offset=".148" stop-color="#c39b50"/><stop offset=".156" stop-color="#c29a4f"/><stop offset=".164" stop-color="#c29a4f"/><stop offset=".172" stop-color="#c1994e"/><stop offset=".18" stop-color="#c1994e"/><stop offset=".188" stop-color="#c0984d"/><stop offset=".195" stop-color="#bf984d"/><stop offset=".203" stop-color="#bf974c"/><stop offset=".211" stop-color="#be974c"/><stop offset=".219" stop-color="#be964b"/><stop offset=".227" stop-color="#bd964a"/><stop offset=".234" stop-color="#bd954a"/><stop offset=".242" stop-color="#bc9549"/><stop offset=".25" stop-color="#bc9449"/><stop offset=".258" stop-color="#bb9348"/><stop offset=".266" stop-color="#ba9348"/><stop offset=".273" stop-color="#ba9247"/><stop offset=".281" stop-color="#b99247"/><stop offset=".289" stop-color="#b99146"/><stop offset=".297" stop-color="#b89145"/><stop offset=".305" stop-color="#b89045"/><stop offset=".313" stop-color="#b79044"/><stop offset=".32" stop-color="#b78f44"/><stop offset=".328" stop-color="#b68f43"/><stop offset=".336" stop-color="#b58e43"/><stop offset=".344" stop-color="#b58e42"/><stop offset=".352" stop-color="#b48d42"/><stop offset=".359" stop-color="#b48c41"/><stop offset=".367" stop-color="#b38c41"/><stop offset=".375" stop-color="#b38b40"/><stop offset=".383" stop-color="#b28b3f"/><stop offset=".391" stop-color="#b28a3f"/><stop offset=".398" stop-color="#b18a3e"/><stop offset=".406" stop-color="#b0893e"/><stop offset=".414" stop-color="#b0893d"/><stop offset=".422" stop-color="#af883d"/><stop offset=".43" stop-color="#af883c"/><stop offset=".438" stop-color="#ae873c"/><stop offset=".445" stop-color="#ae873b"/><stop offset=".453" stop-color="#ad863b"/><stop offset=".461" stop-color="#ad853a"/><stop offset=".469" stop-color="#ac8539"/><stop offset=".477" stop-color="#ab8439"/><stop offset=".484" stop-color="#ab8438"/><stop offset=".492" stop-color="#aa8338"/><stop offset=".5" stop-color="#aa8337"/><stop offset=".508" stop-color="#a98237"/><stop offset=".516" stop-color="#a98236"/><stop offset=".523" stop-color="#a88136"/><stop offset=".531" stop-color="#a88135"/><stop offset=".539" stop-color="#a78035"/><stop offset=".547" stop-color="#a68034"/><stop offset=".555" stop-color="#a67f33"/><stop offset=".563" stop-color="#a57e33"/><stop offset=".57" stop-color="#a57e32"/><stop offset=".578" stop-color="#a47d32"/><stop offset=".586" stop-color="#a47d31"/><stop offset=".594" stop-color="#a37c31"/><stop offset=".602" stop-color="#a37c30"/><stop offset=".609" stop-color="#a27b30"/><stop offset=".617" stop-color="#a17b2f"/><stop offset=".625" stop-color="#a17a2f"/><stop offset=".633" stop-color="#a07a2e"/><stop offset=".641" stop-color="#a0792d"/><stop offset=".648" stop-color="#9f792d"/><stop offset=".656" stop-color="#9f782c"/><stop offset=".664" stop-color="#9e772c"/><stop offset=".672" stop-color="#9e772b"/><stop offset=".68" stop-color="#9d762b"/><stop offset=".688" stop-color="#9c762a"/><stop offset=".695" stop-color="#9c752a"/><stop offset=".703" stop-color="#9b7529"/><stop offset=".711" stop-color="#9b7429"/><stop offset=".719" stop-color="#9a7428"/><stop offset=".727" stop-color="#9a7327"/><stop offset=".734" stop-color="#997327"/><stop offset=".742" stop-color="#997226"/><stop offset=".75" stop-color="#987226"/><stop offset=".758" stop-color="#977125"/><stop offset=".766" stop-color="#977025"/><stop offset=".773" stop-color="#967024"/><stop offset=".781" stop-color="#966f24"/><stop offset=".789" stop-color="#956f23"/><stop offset=".797" stop-color="#956e22"/><stop offset=".805" stop-color="#946e22"/><stop offset=".813" stop-color="#946d21"/><stop offset=".82" stop-color="#936d21"/><stop offset=".828" stop-color="#926c20"/><stop offset=".836" stop-color="#926c20"/><stop offset=".844" stop-color="#916b1f"/><stop offset=".852" stop-color="#916b1f"/><stop offset=".859" stop-color="#906a1e"/><stop offset=".867" stop-color="#90691e"/><stop offset=".875" stop-color="#8f691d"/><stop offset=".883" stop-color="#8f681c"/><stop offset=".891" stop-color="#8e681c"/><stop offset=".898" stop-color="#8d671b"/><stop offset=".906" stop-color="#8d671b"/><stop offset=".914" stop-color="#8c661a"/><stop offset=".922" stop-color="#8c661a"/><stop offset=".93" stop-color="#8b6519"/><stop offset=".938" stop-color="#8b6519"/><stop offset=".945" stop-color="#8a6418"/><stop offset=".953" stop-color="#8a6418"/><stop offset=".961" stop-color="#896317"/><stop offset=".969" stop-color="#886216"/><stop offset=".977" stop-color="#886216"/><stop offset=".984" stop-color="#876115"/><stop offset=".992" stop-color="#876115"/><stop offset="1" stop-color="#866014"/></linearGradient></defs><g><g clip-path="url(#a)"><g clip-path="url(#b)"><path d="M 0 0.0507812 L 0 6.148438 L 500 6.148438 L 500 0.0507812 Z M 0 0.0507812" fill="url(#c)"/></g></g></g></svg>